<?xml version="1.0" encoding="UTF-8"?><svg xmlns="http://www.w3.org/2000/svg" viewBox="0 0 1131.13 288"><defs><style>.cls-1{fill:#ccff02;}</style></defs><path class="cls-1" d="M240.91,183.65c-3.27-4.26-7.12-8.14-11.69-11.29-4.27-2.95-8.44-4.37-13.58-5.34-.08-.01-5.52-.54-5.6-.55,1.46-6.27,2.45-10.24,2.43-14.32-.06-10.75-2.72-18.89-9.71-27.77-6.06-7.69-13.32-9.61-20.58-11.45-6.48-1.64-12.34-2.79-24.28-1.2,16.25-.46,36.28,5.21,43.93,15.63,9.96,16.64,7.82,29.63,4.13,39.03-2.51,6.37-6.47,11.21-10.19,14.69-5.14,4.81-8.96,7.29-15.53,9.87-5.15,2.02-12.17,2.53-16.17,6.62-3.05,3.12-8.86,11.09-5.74,16.16,2.27,3.7,7.35-.73,14.49-2.87-6.66,6.1-9.36,16.63-11.5,18.52-2.39,2.09-6.43,3.76-9.29,5.12-7.12,3.38-14.57,4.98-21.75,2.35-13.27-4.87-13.69-.82-16.8-2.6-2.53-2-1.96-3.81-1.61-4.91-4.68-2.42-8.46-6.79-10.49-11.89,5.21.92,11.59,1.68,13.4,1.5,6.5-.62,15.93-7.82,19.77-12.61,5.53-6.89,8.74-14.55,11.77-22.76,3.37-9.13,4-20.73-4.15-27.97-6.61-5.88-16.76-8.69-25.5-6.08-14.85,4.44-30.71,12.48-40.25,25.87-5.42,7.6-2.72,18.01,3.8,24.72,2.42,2.49,2,3.61,6.28,6.65-8.57-.32-12.59-.92-19.32-5.55-4.66-3.21-8.86-5.9-12.15-10.3-1.16-1.55-2.04-4.02-3.89-4.93-1.38-.67-2.74.82-4.11-.25-2.04-1.6-3.24-9.21-4.15-11.78-1.14-3.22-2.03-7.02-4.14-9.56-2.64-3.17-5.47-3.9-3.78-8.83,1.07-3.12,1.55-6.23,4.88-7.67,11.28-4.89,17.57-12.64,25.46-17.68,4.33-2.76,24.41-13.06,29.41-16.9,8.54-6.56,12.74-16.03,22.37-21.3,5.06-2.77,27.05-10.34,32.65-12.03,9.1-2.75,19.31-5.35,28.74-6.57,7.58-.98,15.39.33,23.11-.46,4.39-.45,10.8-.72,13.86-4.21-.73,4.88-3.76,9.76-7.82,13.42-3.29,2.97-7.25,5.13-11.21,5.84-6.14,1.09-17.65.82-25.61-1.46,11.84,5.81,22.96,4.84,28.12,3.23,6.43-2.01,10.05-3.49,13.52-9.76,3.06-.82,6.77-.54,12.62-2.44-28.16-36.09-77.32-51.98-122.78-35.87C45.43,61.85,15.58,124.46,35.71,181.29c20.14,56.83,82.75,86.68,139.58,66.54,31.41-11.13,54.57-35.24,65.61-64.18Z"/><path class="cls-1" d="M98.91,117.44c-1.31,1.9-2.56,2.78-2.4,3.17.63,1.6,1.71-1.71,3.66-2.13,4.38-.93,11.16.23,15-2.05,7.12-4.24.92-9.94,12.45-18.47-6.27,1.13-12.25,4.4-17.84,8.12-5.6,3.72-6.67,5.29-10.86,11.36Z"/><path d="M246.59,106.57C225.52,47.12,160.02,15.89,100.57,36.96,41.12,58.02,9.89,123.53,30.96,182.97c21.06,59.45,86.57,90.68,146.02,69.61,59.45-21.07,90.68-86.57,69.61-146.02ZM35.71,181.29C15.58,124.46,45.43,61.85,102.26,41.71c45.46-16.11,94.62-.22,122.78,35.87.79-.25,1.61-.55,2.47-.89,6.93,9.06,12.61,19.34,16.62,30.69,9.4,26.57,8.14,54.32-1.5,78.61-.55-.79-1.13-1.57-1.72-2.34-11.04,28.94-34.2,53.05-65.61,64.18-56.83,20.14-119.44-9.72-139.58-66.54Z"/><path d="M198.9,89.79c-5.16,1.61-16.28,2.58-28.12-3.23,7.96,2.28,19.47,2.55,25.61,1.46,3.97-.71,7.92-2.88,11.21-5.84,4.06-3.66,7.1-8.54,7.82-13.42-3.06,3.5-9.47,3.77-13.86,4.21-7.72.79-15.53-.52-23.11.46-9.43,1.22-19.64,3.82-28.74,6.57-5.6,1.69-27.59,9.26-32.65,12.03-9.63,5.27-13.84,14.74-22.37,21.3-5,3.84-25.08,14.14-29.41,16.9-7.89,5.04-14.19,12.79-25.46,17.68-3.33,1.44-3.81,4.55-4.88,7.67-1.68,4.93,1.15,5.66,3.78,8.83,2.12,2.55,3,6.34,4.14,9.56.91,2.58,2.11,10.19,4.15,11.78,1.37,1.08,2.74-.42,4.11.25,1.86.91,2.73,3.38,3.89,4.93,3.29,4.4,7.49,7.09,12.15,10.3,6.73,4.63,10.76,5.23,19.32,5.55-4.28-3.04-4.13-3.93-6.28-6.65-5.25-6.68-8.58-12.61-5.47-20.37,6.09-15.19,60.82-30.03,67.43-24.15,8.15,7.24,7.52,18.84,4.15,27.97-3.03,8.21-6.24,15.88-11.77,22.76-3.84,4.78-13.27,11.99-19.77,12.61-1.8.17-8.19-.58-13.4-1.5,2.03,5.1,5.81,9.47,10.49,11.89-.35,1.1-.92,2.91,1.61,4.91,3.11,1.79,3.52-2.27,16.8,2.6,7.18,2.63,14.63,1.03,21.75-2.35,2.85-1.35,6.9-3.02,9.29-5.12,2.14-1.88,24.76-33.39,34.45-48.3,3.07-4.72,7.69-8.32,10.19-14.69,3.69-9.4,5.83-22.39-4.13-39.03-7.66-10.42-27.69-16.09-43.93-15.63,11.94-1.59,17.8-.44,24.28,1.2,7.26,1.84,14.52,3.76,20.58,11.45,7,8.88,9.65,17.02,9.71,27.77.02,4.08-.97,8.05-2.43,14.32.08.02,5.52.54,5.6.55,5.14.97,9.31,2.39,13.58,5.34,4.56,3.15,8.41,7.02,11.69,11.29.59.77,1.17,1.55,1.72,2.34,9.64-24.29,10.9-52.04,1.5-78.61-4.01-11.35-9.69-21.62-16.62-30.69-.87.34-1.69.63-2.47.89-5.85,1.9-9.56,1.62-12.62,2.44-3.47,6.27-7.09,7.75-13.52,9.76ZM115.16,116.43c-3.84,2.29-10.62,1.12-15,2.05-1.95.42-3.02,3.72-3.66,2.13-.15-.39,1.09-1.27,2.4-3.17,4.19-6.07,5.27-7.64,10.86-11.36,5.59-3.72,11.57-6.99,17.84-8.12-11.53,8.53-5.33,14.23-12.45,18.47Z"/><path d="M404.57,104.64v86.86c0,6.06-2.4,10.85-7.19,14.35-4.79,3.51-11.25,5.26-19.36,5.26h-86.46v-18.09h20.57v-91.41h-20.57v-18.09h87.62c16.93,0,25.39,7.04,25.39,21.12ZM373.41,187.62v-80.52c0-3.66-1.71-5.49-5.14-5.49h-24.87v91.41h24.45c3.71,0,5.56-1.8,5.56-5.4Z"/><path d="M515.38,83.52v18.09h-99.79v-18.09h99.79ZM503.41,170.57h-57.4v22.17c0,3.47,1.96,5.21,5.88,5.21h15.63c3.64,0,5.46-1.8,5.46-5.4v-12.88h30.43v11.84c0,6.06-2.41,10.85-7.24,14.35-4.83,3.51-11.3,5.26-19.41,5.26h-35.78c-8.33,0-14.69-1.99-19.1-5.97-4.2-3.66-6.3-8.71-6.3-15.16v-55.13c0-6.63,2.73-11.71,8.18-15.25,4.69-3.03,10.63-4.55,17.84-4.55h36.41c16.93,0,25.39,6.79,25.39,20.37v35.14ZM472.98,159.68v-25.77c0-3.73-1.68-5.59-5.04-5.59l-16.47.09c-3.64,0-5.46,1.89-5.46,5.68v25.58h26.97Z"/><path d="M563.96,211.11h-50.16v-18.09h10.07v-91.41h-10.07v-18.09h40.4l-.1,109.5h9.86v18.09Z"/><path d="M685.15,104.64v31.54c0,9.66-1.89,16.48-5.67,20.46-3.99,4.23-10.88,6.35-20.67,6.35h-34.84v30.03h20.57v18.09h-72.4v-18.09h20.57v-91.41h-20.57v-18.09h87.62c16.93,0,25.39,7.04,25.39,21.12ZM653.99,134.1v-27c0-3.66-2.03-5.49-6.09-5.49h-23.92v43.2h19.94c4.27,0,7.14-1.07,8.6-3.22.98-1.45,1.47-3.95,1.47-7.48Z"/><path d="M807.81,83.52v18.09h-112.38v-18.09h112.38ZM793.33,189.99c0,14.08-8.25,21.12-24.76,21.12h-36.93c-8.39,0-14.85-1.93-19.36-5.78-4.51-3.85-6.77-8.97-6.77-15.35v-58.83h-10.07v-16.1h40.4v77.68c0,3.47,1.99,5.21,5.98,5.21h15.63c3.71,0,5.56-1.71,5.56-5.12v-61.67h-10.07v-16.1h40.4v74.93Z"/><path d="M963.63,83.52v18.09h-157.6v-18.09h157.6ZM949.99,211.11h-30.74v-74.93c0-1.26-.1-2.07-.31-2.42-.21-.35-.67-.52-1.36-.52-1.96,0-5.6,2.05-10.91,6.16-3.85,2.97-6.86,6.03-9.02,9.19l.1,62.52h-30.74v-74.93c0-1.26-.1-2.07-.31-2.42-.21-.35-.67-.52-1.36-.52-1.96,0-5.6,2.05-10.91,6.16-3.85,2.97-6.82,6.03-8.92,9.19v44.43h9.76v18.09h-49.21v-18.09h10.07v-61.86h-10.07v-16.1h39.45v13.64c3.08-2.97,7.48-5.84,13.22-8.62,7.13-3.41,13.71-5.12,19.73-5.12,11.4,0,17.8,4.58,19.2,13.74,3.15-2.97,7.55-5.84,13.22-8.62,7.2-3.41,13.82-5.12,19.83-5.12s10.65,1.44,14.11,4.31c3.46,2.87,5.19,6.71,5.19,11.51v80.33Z"/><path d="M1062.58,83.52v18.09h-101.15v-18.09h101.15ZM1051.04,211.11h-66.53c-7.35,0-13.12-2.02-17.31-6.06-3.85-3.66-5.77-8.3-5.77-13.92v-20.84c0-11.05,7.48-16.58,22.46-16.58l28.96.09v-20.75c0-3.09-1.47-4.64-4.41-4.64h-11.54c-3.36,0-5.04,1.42-5.04,4.26v13.36h-30.43v-12.03c0-12.63,8.6-18.95,25.81-18.95h33.05c15.25,0,22.87,6.5,22.87,19.51v58.45h7.87v18.09ZM1012.85,197.95v-33.63h-15.11c-3.92,0-5.88,1.58-5.88,4.74v23.21c0,3.79,2.06,5.68,6.19,5.68h14.79Z"/></svg>