<?xml version="1.0" encoding="UTF-8"?><svg xmlns="http://www.w3.org/2000/svg" viewBox="0 0 648 648"><defs><style>.cls-1{fill:#ccff02;}</style></defs><path class="cls-1" d="M546.48,425.59c-7.09-9.24-15.42-17.62-25.31-24.45-9.25-6.38-18.28-9.47-29.41-11.56-.17-.03-11.95-1.16-12.12-1.19,3.16-13.57,5.31-22.18,5.26-31.01-.13-23.29-5.88-40.92-21.04-60.14-13.13-16.66-28.85-20.82-44.57-24.8-14.03-3.55-26.72-6.05-52.57-2.59,35.18-1,78.56,11.29,95.15,33.85,21.57,36.04,16.94,64.17,8.94,84.52-5.43,13.78-14,24.27-22.08,31.81-11.13,10.41-19.4,15.8-33.64,21.37-11.16,4.37-26.36,5.47-35.02,14.34-6.6,6.76-19.19,24.01-12.44,35,4.92,8.01,15.92-1.59,31.39-6.21-14.43,13.2-20.27,36.02-24.91,40.1-5.18,4.54-13.94,8.14-20.12,11.08-15.42,7.32-31.55,10.78-47.1,5.09-28.75-10.54-29.64-1.77-36.37-5.63-5.48-4.34-4.24-8.25-3.49-10.64-10.14-5.23-18.33-14.7-22.72-25.75,11.27,2,25.11,3.63,29.01,3.25,14.08-1.33,34.5-16.94,42.82-27.3,11.98-14.92,18.93-31.52,25.49-49.3,7.29-19.77,8.65-44.89-8.99-60.57-14.32-12.73-36.29-18.81-55.23-13.16-32.16,9.61-66.51,27.03-87.18,56.03-11.73,16.45-5.9,39.01,8.22,53.54,5.24,5.4,4.33,7.82,13.61,14.41-18.55-.69-27.26-1.99-41.85-12.02-10.1-6.95-19.19-12.77-26.32-22.31-2.52-3.35-4.41-8.7-8.43-10.67-2.98-1.46-5.93,1.78-8.91-.55-4.42-3.46-7.01-19.94-8.98-25.52-2.47-6.98-4.39-15.2-8.97-20.71-5.71-6.86-11.84-8.45-8.19-19.12,2.32-6.76,3.37-13.48,10.57-16.61,24.42-10.58,38.06-27.36,55.15-38.28,9.37-5.98,52.86-28.28,63.69-36.6,18.49-14.21,27.6-34.72,48.46-46.13,10.96-6,58.58-22.39,70.71-26.05,19.71-5.95,41.82-11.59,62.24-14.23,16.42-2.12,33.34.72,50.06-.99,9.5-.97,23.39-1.56,30.02-9.13-1.57,10.57-8.14,21.14-16.94,29.07-7.12,6.42-15.69,11.12-24.28,12.65-13.31,2.37-38.23,1.78-55.47-3.16,25.64,12.57,49.72,10.48,60.9,6.99,13.93-4.35,21.76-7.56,29.28-21.14,6.63-1.78,14.67-1.17,27.33-5.29-60.98-78.17-167.45-112.57-265.9-77.69-123.07,43.61-187.72,179.22-144.11,302.29,43.61,123.07,179.21,187.72,302.29,144.11,68.03-24.11,118.19-76.33,142.1-138.99Z"/><path class="cls-1" d="M238.95,282.2c-2.84,4.11-5.54,6.02-5.21,6.87,1.37,3.46,3.7-3.7,7.92-4.6,9.49-2.02,24.17.51,32.49-4.45,15.41-9.18,1.99-21.53,26.96-39.99-13.58,2.44-26.52,9.53-38.63,17.58-12.12,8.06-14.44,11.46-23.52,24.6Z"/><path d="M558.78,258.65c-45.62-128.75-187.48-196.38-316.23-150.76C113.81,153.51,46.17,295.38,91.79,424.12c45.62,128.75,187.48,196.38,316.24,150.76,128.75-45.62,196.38-187.48,150.76-316.23ZM102.09,420.48c-43.61-123.07,21.04-258.68,144.11-302.29,98.46-34.88,204.92-.48,265.9,77.69,1.7-.55,3.48-1.18,5.35-1.92,15.02,19.63,27.31,41.88,36,66.46,20.35,57.54,17.63,117.64-3.25,170.25-1.2-1.72-2.45-3.4-3.73-5.07-23.91,62.67-74.07,114.89-142.1,138.99-123.07,43.61-258.68-21.04-302.29-144.11Z"/><path d="M455.5,222.32c-11.18,3.49-35.26,5.58-60.9-6.99,17.24,4.94,42.16,5.53,55.47,3.16,8.59-1.53,17.16-6.23,24.28-12.65,8.8-7.94,15.37-18.5,16.94-29.07-6.63,7.57-20.52,8.16-30.02,9.13-16.72,1.71-33.63-1.13-50.06.99-20.42,2.64-42.53,8.28-62.24,14.23-12.13,3.66-59.75,20.06-70.71,26.05-20.86,11.41-29.97,31.92-48.46,46.13-10.83,8.32-54.32,30.62-63.69,36.6-17.09,10.92-30.72,27.7-55.15,38.28-7.21,3.12-8.25,9.85-10.57,16.61-3.64,10.67,2.48,12.26,8.19,19.12,4.59,5.51,6.5,13.73,8.97,20.71,1.98,5.58,4.56,22.06,8.98,25.52,2.97,2.34,5.93-.91,8.91.55,4.02,1.97,5.92,7.32,8.43,10.67,7.13,9.53,16.22,15.36,26.32,22.31,14.59,10.04,23.3,11.33,41.85,12.02-9.28-6.59-8.95-8.5-13.61-14.41-11.38-14.46-18.59-27.32-11.85-44.11,13.2-32.89,131.71-65.03,146.04-52.3,17.65,15.68,16.28,40.8,8.99,60.57-6.56,17.79-13.51,34.38-25.49,49.3-8.32,10.36-28.75,25.97-42.82,27.3-3.9.37-17.74-1.25-29.01-3.25,4.39,11.05,12.57,20.52,22.72,25.75-.75,2.39-1.98,6.3,3.49,10.64,6.73,3.87,7.63-4.91,36.37,5.63,15.55,5.7,31.68,2.23,47.1-5.09,6.18-2.93,14.94-6.54,20.12-11.08,4.64-4.08,53.62-72.31,74.62-104.61,6.64-10.22,16.65-18.03,22.08-31.81,8-20.35,12.63-48.48-8.94-84.52-16.58-22.57-59.96-34.85-95.15-33.85,25.85-3.45,38.54-.95,52.57,2.59,15.73,3.97,31.45,8.13,44.57,24.8,15.15,19.23,20.91,36.85,21.04,60.14.05,8.83-2.1,17.44-5.26,31.01.18.03,11.96,1.16,12.12,1.19,11.13,2.09,20.17,5.18,29.41,11.56,9.89,6.83,18.22,15.21,25.31,24.45,1.28,1.67,2.53,3.35,3.73,5.07,20.88-52.62,23.61-112.71,3.25-170.25-8.69-24.57-20.98-46.82-36-66.46-1.88.74-3.65,1.37-5.35,1.92-12.67,4.12-20.71,3.51-27.33,5.29-7.52,13.58-15.35,16.79-29.28,21.14ZM274.15,280.01c-8.32,4.96-23,2.43-32.49,4.45-4.22.9-6.55,8.07-7.92,4.6-.33-.84,2.37-2.75,5.21-6.87,9.08-13.14,11.41-16.54,23.52-24.6,12.11-8.06,25.05-15.14,38.63-17.58-24.96,18.46-11.54,30.81-26.96,39.99Z"/></svg>